<svg version="1.0" xmlns="http://www.w3.org/2000/svg" width="712" height="712" viewBox="0 0 712 712">
  <defs>
    <linearGradient id="a" gradientUnits="userSpaceOnUse" x1="48.596%" y1="2.809%" x2="48.596%" y2="96.489%">
      <stop offset="0%" style="stop-color:#000"/>
      <stop offset="1%" style="stop-color:#38415b"/>
      <stop offset="62%" style="stop-color:#292f46"/>
      <stop offset="63%" style="stop-color:#272e44"/>
      <stop offset="100%" style="stop-color:#1b2035"/>
    </linearGradient>
    <linearGradient id="b" gradientUnits="userSpaceOnUse" x1="39.747%" y1="33.989%" x2="39.747%" y2="93.258%">
      <stop offset="0%" style="stop-color:#306fc4"/>
      <stop offset="5%" style="stop-color:#2e70c9"/>
      <stop offset="7%" style="stop-color:#2b6bc2"/>
      <stop offset="15%" style="stop-color:#2c6ec7"/>
      <stop offset="100%" style="stop-color:#1a47a0"/>
    </linearGradient>
  </defs>
  <g fill="#020416"/>
  <g fill="url(#a)">
    <path d="M473.4 544.7c-3.6-4.4-4.4-6.7-4.4-13.2 0-3.6-.4-6.5-.8-6.5-1.9 0-5-3.7-5.6-6.8-.6-2.3-1.3-3.2-2.8-3.2-2.6 0-5.7-3.8-5.8-7.1 0-1.9-.8-2.9-3.2-4-2.6-1.1-3.4-2.1-3.6-4.6-.2-1.8-.7-3.3-1.2-3.3s-1.2-.9-1.5-2-1.2-2-1.8-2c-.7 0-2-.9-3-2-.9-1.1-2.9-2-4.5-2-3.3 0-9.2-5.9-9.2-9.3 0-2.1 0-2.1-2 .1-1.4 1.4-3.3 2.2-5.5 2.2-3 0-3.5-.3-3.5-2.4 0-2.3-.5-2.5-4.7-2.8l-4.8-.3-.2-4.5c-.1-2.5-.2-6-.2-7.7-.1-2.8-.5-3.3-2.6-3.3-1.4 0-2.5-.5-2.5-1.1s-.9-.8-2-.4-4.9.3-8.5 0l-6.4-.7-.6-3.9c-.4-2.4-1.2-3.9-2.1-3.9-.8 0-1.7-.7-2-1.5-.4-.8-1.8-1.5-3.3-1.5-2.4.1-2.4.2-.8 1.4 2.6 2 2.4 9.6-.3 10.3-1.1.3-2 1.3-2 2.3q0 3-5.7 3c-1.8 0-3.8-1.4-6.5-4.5-2.2-2.4-9.9-9.6-17.2-15.9-29.2-25.2-43.7-44.8-52.6-71.6-8.2-24.3-9.8-56-4.4-87.5 4.1-24.4 14.3-51.8 25-67.3 21.1-30.4 42.6-54.8 65.9-74.8l8-6.8 3-10.1c5-16.1 12.9-32 22.5-45 10.8-14.6 32.6-34.5 51.4-46.9C476.6 23.6 490 17 490 19.5c0 .3-2.5 5.4-5.5 11.5-5.7 11.4-15.4 33.7-18.7 43-2.9 8-7.8 25.2-7.8 27.1 0 4 3.3 2.8 11.4-3.9C488.2 81.3 515 63 519.3 63c1.3 0 .4 2.5-3.9 11.8-7.2 15-15.8 34.7-19.4 44l-2.9 7.3 8.1 7.7c16.4 15.6 33 37.9 40.7 54.3 2.1 4.6 5.6 14.5 7.6 21.9 5.4 19.7 13.4 35.3 66 129l11 19.5.3 8.7c.5 11.1-.6 14.3-10.1 30-4.1 6.8-8.9 15.1-10.7 18.5-4.5 8.7-11.2 15.3-19.5 19.4-6.6 3.2-7.6 3.4-19.2 3.8-16.6.4-25.7-2.5-35.4-11.6-6.1-5.7-8.6-11-9.8-21.3-.6-4.8-2.2-10.6-3.6-13.9-7.6-16.5-29.8-36.8-55.7-50.9-10.3-5.6-15.3-7.5-32.3-12.2-22.6-6.2-35.2-13.4-48.6-27.9-15.9-17.1-23.3-36.2-24.6-63.4-.4-7.1-.9-11.3-1.5-10.5-1.6 2.5-7.9 23.8-9.6 32.5-2.5 13.6-2.2 42.7.6 55.8 5.6 25.9 15.6 47.2 32.8 69.5 7.6 10 26.7 29.4 41.9 42.6 30.2 26.4 47.8 47.7 58.5 70.9 7.3 15.6 14.5 42.5 11.4 42.5-.8 0-1.4.7-1.4 1.5s-1.4 1.7-3.5 2.1c-1.9.3-3.8 1-4.1 1.5-1.1 1.9-7 .9-9-1.4m47.7-293.9c-2.8-7-9.4-20.4-12.1-24.4-4.7-6.7-9.7-9.8-22.8-14-6.4-2-13.7-4.6-16.1-5.6-7-3-7.5-1.9-3.1 6.2 8.7 15.8 14.1 20.7 26.9 24.7 11.5 3.5 18.2 6.8 23.4 11.4 2.3 2.1 4.3 3.8 4.4 3.9.1 0-.1-1-.6-2.2"/>
    <path d="M205.2 472c-32.5-21.5-53.8-51.8-60.3-86-1.9-10-2.1-13.7-1.6-29 .6-19.1 2.5-30.6 7.8-46.4 1.7-4.8 2.8-9.1 2.5-9.3-.3-.3-3.8 2.5-7.8 6.2-19.2 17.9-42.8 34.4-64.1 44.8-18.7 9.2-19.4 9.3-12.2 1.6 14.6-15.4 23.6-28.6 43.4-63.4 19.5-34.2 31.6-51.5 50.5-72.6 8.6-9.7 25-24.6 36.1-33.1 14.8-11.2 36.7-23.5 51.3-28.8 3.4-1.2 6.2-2.5 6.2-2.8 0-1.2-27.6 1.2-37.5 3.3-22.3 4.8-46.3 15.2-66.4 28.6-10.1 6.8-10.3 6.9-7.6 3.2 17.4-23.2 40.6-44.4 64-58.6 18-10.9 36.2-19.1 55.5-25 24.3-7.5 42.6-10.5 68.9-11.4l18.3-.6-5.8-1.9c-11.5-3.6-25.3-6.8-36.5-8.4-21.7-3.2-53.3-1.9-71.7 3-12.8 3.4 2.8-5.3 22.8-12.8 16.6-6.1 37.9-11.1 54-12.5 32.1-3 69.9.1 92.9 7.5.8.3-.5 1.7-3.5 3.6-6.7 4.4-21.1 19-25.9 26.3-2.2 3.3-5.6 9.1-7.6 12.8l-3.6 6.8-12 5.8C302.7 148.4 261.4 185 230.9 233c-26.5 41.8-40.6 86.3-42.6 134.5-1.6 39.9 7.3 76.9 25.4 104.9 2.4 3.7 4.2 7 4 7.2s-5.8-3.2-12.5-7.6"/>
  </g>
  <g fill="url(#a)">
    <path d="M308.6 690.9c-4.9-.6-9.6-1.4-10.4-1.8-1.2-.7.8-3.4 8.9-12.2 26-28.2 37.6-42.2 47.3-56.9 8.5-12.9 10.6-16.5 10.6-18.3 0-.8.9-2.5 1.9-3.8 1.1-1.3 3.4-6.9 5.2-12.4s4.7-14.2 6.6-19.4c4.5-12.3 7-22.4 8.4-34.1.9-8 .9-11-.5-18.8-2.8-16.2-8.5-29.9-17.7-42.5-3.5-4.8-4.9-7.7-4.9-10 .1-2.6.2-2.9 1.1-1.5.5 1 1.6 1.5 2.4 1.2 1.7-.7 2-3.4.4-3.4-.5 0-.7-.5-.4-1 .4-.6 1.6-1 2.7-.8 1.4.2 2.2-.3 2.4-1.4.1-1-.2-1.8-.7-1.8-1.2 0-3.7-6.1-3.2-8.1.5-1.8 7.3-2.1 7.3-.4 0 .5.4.4.9-.3.4-.8 1.1-1.3 1.5-1.3 1.1.1 3.4 2.6 3 3.3-.2.4 0 .9.6 1.3.5.3 1 .1 1-.4 0-.8.7-.7 1.9.1 1.5.9 1.7 1.5.9 2.6-.8.9-.8 1.6 0 2.4.6.6.8 1.7.5 2.4-.3.8.1 1.4 1.1 1.4.9 0 1.5-.5 1.4-1.1-.2-.6.7-1.3 2-1.5 1.7-.3 2.2 0 2 1.3-.2 1 .3 1.8 1 1.7 3.5-.3 4-.5 4.6-2.1.4-.9.1-2-.5-2.4s-.9-1.2-.5-1.8c1-1.6 6.7 4.5 6 6.4-.4.8-.1 1.5.5 1.5s1.1-.5 1.1-1.1c0-.8.5-.8 1.5.1 1 .8 1.5.9 1.5.1 0-.6 1.1-1 2.5-.9 2.5.2 3.6 1.8 1.3 1.8-1 0-.9.3.1.9 1.1.7.9 1-.7 1.5-2.6.9-3.5 3.1-1.6 4.7 1.1.9 1.2 1.5.2 2.6-1 1.2-.8 1.4 1 1.1 1.1-.1 2.1.1 2.1.7.1.5-.9 1-2.2 1s-2.2.6-2.2 1.5c0 1.8 3.5 2.6 4.5 1 .5-.8 1.7-.6 4.1.9 1.9 1.2 2.8 2.1 2.2 2.1-.7 0-1.3.8-1.3 1.8 0 1.4.2 1.5 1 .2.5-.8 1-1.1 1-.5 0 1.2 3.5-3.7 3.5-5 0-.5 1.3-1 2.8-.9 2.1.1 2.9-.4 3.4-2.5.6-2.3.7-2.3 1.3-.6.7 2.1-2.5 5.9-4.1 5-.4-.3-1.1 0-1.5.6-.5.8.1 1 1.9.7 1.7-.3 2.8 0 3.1.9.3.8 1 1.1 1.6.8.5-.3 1-.1 1 .6 0 .6-.8.9-2 .6-2.3-.6-2.4-.3-.8 2.6 1.1 2.1 1.1 2.1 1.9.2.7-1.8.8-1.7.8.6.1 2.5 3.1 6.5 3.1 4.1 0-.6-.4-1.4-1-1.7-2.1-1.3-1-2.7 1.6-2.1 2.7.7 5.8-.9 4.8-2.5-.3-.5.5-.7 1.8-.5 1.3.3 2.8.5 3.3.6.6.1-.1.6-1.4 1.1-1.6.6-2.1 1.4-1.7 2.5s.2 1.5-.7 1.1c-.8-.3-2-.1-2.8.5-1.1.8-1.1 1.1-.1 1.5.7.3 2.2 1.4 3.2 2.5s2.3 1.7 2.9 1.3c.6-.3 1.1.1 1.1.9 0 .9.8 1.6 1.8 1.6 1.3 0 1.4.2.4.9-1.1.7-1.1.9.2 1.4.9.4 1.3 1.5 1 3-.5 3 1.7 5 5.4 4.9 2.3 0 2.7.4 2.9 2.9.1 1.7-.2 2.7-.7 2.4-1.6-1-1.1.5.9 3.1 1.1 1.4 2.2 2 2.6 1.5.6-1.1 6.5-1 6.5.1 0 .4-.8 1.1-1.7 1.7-1.4.7-1.5 1.2-.4 2.5.7.8 1.1 1.9.8 2.3s.1 1.4.9 2.1 1.4.9 1.4.5.4-.2.9.6c.6 1 1.3 1.1 2.9.2 1.2-.6 2.3-.7 2.6-.2s-.3 1.1-1.4 1.4c-1.5.4-1.9 1.1-1.6 2.9.3 1.2.5 2.8.6 3.3.1.6.5.1.9-1 .7-1.7.8-1.6 1.3.8.4 2.1.2 2.7-.8 2.3-.7-.3-1.6-.1-1.9.3-.2.5.5 1.1 1.6 1.4 2.3.6 1.7 2.7-.7 2.7-.8 0-1.2.5-.9 1 .3.6 1.5 1 2.6 1 1 0 1.9.5 1.9 1.1 0 .5-.4.8-.9.4-.5-.3-1.2-.1-1.6.5-.3.5.2 1 1.1 1 1 0 1.4.3 1.1.7-.4.3-.2 1.2.4 1.9.9 1.1 1.5 1 3.4-.2 1.3-.9 2.6-1.5 2.9-1.5 2.4.4 3.4-.1 3.2-1.6-.1-1.1.7-1.7 2.6-1.8 3.1-.2 3.3.4 4.3 13 1.7 22.5-5.1 53.7-16.9 76.8-18.3 36-39.5 55.7-66.7 61.8-8.6 2-12.7 2.2-50.9 2.4-22.8.2-45.5-.1-50.4-.6"/>
    <path d="M487.5 121.8c-2.7-2.2-8.9-6.7-13.7-10-8.1-5.4-11.5-8.3-6.9-5.8 1.1.5 2.6.7 3.4.4s3 1 5.1 2.9c1.9 1.9 3.9 3.1 4.2 2.8.4-.3.4 0 0 .7-.5.8 0 1.2 1.6 1.2 1.3 0 3.4 1.2 4.7 2.5 1.2 1.4 2.7 2.3 3.1 2 1.3-.8 4 .6 4 2 0 .7.5 1.5 1 1.7.7.2.6.9-.2 2-1.2 1.5-1.7 1.3-6.3-2.4"/>
    <path d="M455.6 110c.7-4.5 1.9-7 3.4-7 1.4 0 .4 4.4-1.9 8l-2.2 3.5z"/>
  </g>
  <g fill="url(#b)">
    <path d="M212.6 667.8c-12.4-2.3-25.4-11.5-31.1-21.9-7.4-13.7-7.4-28.8.2-44.9 4.9-10.4 17.5-22.9 28.5-28.3 11.1-5.4 19.2-7 31.3-6.4 11.1.5 19 2.8 26.4 7.6l4.6 3 .3-22.4c.2-20.6.4-22.5 2-22.5 3.2 0 3.9 1.5 4.6 9.5 1.1 13.2 1.7 17.5 2.7 17.5 2.2 0 4.9 3.6 4.9 6.7 0 2.7.4 3.3 2.1 3.3 2.1 0 2.1.2 1.6 21.8-.5 24.1-1.3 28.7-7.3 40.7-13.4 26.6-42.8 41.7-70.8 36.3"/>
    <path d="M287 445.5V437h3.8c4.7 0 6.2 1.4 6.2 5.9 0 3.2-.1 3.3-1.8 1.8-3.2-3-4.2-2.1-4.2 3.8 0 4.8-.2 5.5-2 5.5s-2-.7-2-8.5"/>
  </g>
  <path fill="url(#b)" d="M289.8 606.5c-.4-1.1-.8-8.5-.9-16.5-.2-8-.6-15.4-1-16.5s-.9-1.5-1-1c-.1.6-.2 1.5-.4 2-.1.6-.3 1.6-.3 2.3-.3 1.8-3.2 1.5-3.2-.4 0-1.2-.7-1.5-2.4-1.2-4.8 1-5.4-.9-1.4-4.6 3.6-3.3 3.6-3.5 1.5-3.9-1.8-.3-1.6-.5.7-.6 2.7-.1 2.9-1.5.3-1.6-.7-.1-1.1-.6-.9-1.3.1-.7-.5-1.2-1.3-1.2s-1.5-.6-1.6-1.2c0-.7-.3-2.2-.6-3.3s-.7-6.2-.9-11.4-.6-9.7-.9-9.9c-.3-.3-.5 5.7-.5 13.3s-.3 13.6-.6 13.2c-.4-.3-1-34.5-1.4-75.9-.8-77.4-.9-79.4-5.5-111.1-.5-3.7-.5-3.7 2.9-3.7 2.8 0 3.5.4 3.8 2.2.2 1.3 1.1 2.4 2.3 2.6 1.1.2 2.7 1 3.5 1.7s3.2 1.5 5.3 1.8c3.4.5 3.9.3 5.2-2.4 1.9-3.5 4.2-3.8 5.5-.5 2.3 6.1 8.6 17.8 13.7 25.3 7.3 10.9 19.6 23.8 36.1 38.1 7.3 6.3 16.1 14.7 19.4 18.5 26 30.3 32 64.7 18.1 105.2-3.2 9.5-13 31.1-13.8 30.4-.2-.2 1-4.2 2.5-8.9 4.9-14.5 6.5-24.2 6.4-39 0-16.5-2.4-27.1-9-40.5-8.5-17.3-22.3-30.4-42.9-40.7-14-7-23-13.1-29.7-19.9-3.2-3.3-5.9-5.9-6-5.9-.2 0-.2 34.5 0 76.7.3 80.1.2 93.2-1 89.8"/>
  <path fill="url(#b)" d="M269.5 391.8c-2.6-8.4-3.3-51.4-1-67.3 4.3-30.4 14.1-59.2 29.1-85.8 5.3-9.3 7.1-11.3 9.3-10.5.5.1-1 4.8-3.3 10.3-2.4 5.5-5.4 13.4-6.9 17.5-13.3 38.7-14.7 80.3-3.8 112.8 2.8 8.4 2.8 8.6 1 11.6-1.5 2.4-1.6 3.1-.4 4 .8.7 1 1.8.5 3.1-.7 1.5-.9 1.6-.9.4-.1-2.5-2.5-4.1-3.9-2.7-.7.7-2.9 1.1-4.9 1-3.5-.3-3.6-.2-2 1.6 2.3 2.5 2.2 2.9-1.3 3.4-2.3.3-3 .1-3-1.1 0-1.9 2.9-5.7 5-6.4.8-.3.2-.6-1.4-.6-1.6-.1-3.7-.7-4.5-1.5-1-.9-2.3-1.1-3.6-.6-1.1.5-1.4.9-.7.9.7.1 1 .6.7 1.1-1.2 1.9-2.3.1-2.3-3.6 0-1.9-.3-3.8-.7-4.2s-.4 3.5-.1 8.6c.7 8.2.3 11.6-.9 8"/>
</svg>
